<svg width="300" height="200" viewBox="0 0 300 200" fill="none" xmlns="http://www.w3.org/2000/svg">
<g clip-path="url(#clip0_468_3553)">
<rect width="300" height="200" fill="#EEF2FF"/>
<path opacity="0.25" d="M95.4174 152.15L95.3392 153.007C95.2057 154.479 96.2918 155.78 97.7641 155.91L142.114 159.839L176.628 168.722C178.54 169.214 180.492 168.075 181.003 166.167L181.842 163.042L187.946 163.805C189.861 164.045 191.59 162.644 191.754 160.722L196.939 99.9271L208.528 51.1267C208.833 49.8402 208.068 48.5424 206.795 48.1858L205.069 47.7026L184.911 133.495L177.516 163.042L171.749 164.164L134.904 154.392L95.4174 152.15Z" fill="#0F172A"/>
<path d="M185.868 159.05L95.9498 151.595C94.8813 151.506 94.0869 150.569 94.1757 149.5L103.955 31.5523C104.044 30.4839 104.981 29.6894 106.05 29.7783L195.969 37.2337C197.037 37.3225 197.832 38.26 197.743 39.3284L187.963 157.276C187.875 158.345 186.937 159.139 185.868 159.05Z" fill="white"/>
<path d="M185.554 160.417C185.446 160.417 185.337 160.413 185.228 160.404L96.3593 153.036C94.233 152.859 92.6461 150.986 92.8225 148.859L102.515 31.9611C102.601 30.931 103.082 29.9961 103.871 29.3277C104.66 28.6599 105.662 28.3386 106.691 28.4242L195.56 35.7927C196.59 35.8784 197.525 36.3597 198.193 37.1485C198.861 37.9372 199.182 38.9389 199.097 39.969L189.404 156.867C189.318 157.897 188.837 158.832 188.048 159.501C187.343 160.097 186.468 160.417 185.554 160.417ZM106.369 31.2139C106.117 31.2139 105.876 31.3021 105.682 31.4665C105.575 31.5567 105.487 31.6673 105.422 31.7919C105.358 31.9165 105.32 32.0526 105.308 32.1923L95.6159 149.091C95.5674 149.677 96.0046 150.193 96.5905 150.242L185.459 157.61C185.743 157.634 186.019 157.545 186.236 157.361C186.454 157.177 186.587 156.92 186.61 156.636L196.302 39.7372C196.326 39.453 196.238 39.1771 196.054 38.9597C195.963 38.8525 195.853 38.7643 195.728 38.7001C195.604 38.636 195.468 38.5973 195.328 38.5861L106.459 31.2177C106.429 31.2151 106.4 31.2139 106.369 31.2139Z" fill="#0F172A"/>
<path d="M113.682 26.7636L91.7942 118.35C91.678 118.836 91.7574 119.349 92.0153 119.777L108.628 147.363C108.769 147.598 108.956 147.802 109.176 147.965C109.397 148.127 109.648 148.244 109.914 148.309L174.508 164.078C176.059 164.457 177.622 163.506 177.999 161.955L205.533 48.6082C205.873 47.2046 205.005 45.7927 203.598 45.4645L116.371 25.1016C115.17 24.8213 113.968 25.5641 113.682 26.7636Z" fill="white"/>
<path d="M175.201 165.565C174.859 165.565 174.515 165.524 174.176 165.441L109.581 149.671C108.687 149.453 107.902 148.876 107.427 148.087L90.8148 120.502C90.3643 119.754 90.2282 118.874 90.4311 118.025L112.319 26.4388C112.783 24.4953 114.745 23.2838 116.69 23.738L203.917 44.1008C204.964 44.3453 205.851 44.9841 206.414 45.9001C206.977 46.8162 207.148 47.896 206.894 48.9405L179.361 162.287C179.09 163.401 178.401 164.343 177.421 164.939C176.742 165.353 175.978 165.565 175.201 165.565ZM115.045 27.0896L93.1577 118.676C93.1269 118.806 93.1476 118.94 93.2163 119.054L109.829 146.64C109.921 146.793 110.073 146.905 110.246 146.947L174.841 162.717C175.227 162.811 175.627 162.749 175.966 162.543C176.305 162.336 176.543 162.01 176.637 161.624L204.171 48.2778C204.247 47.9653 204.196 47.6421 204.027 47.368C203.945 47.2332 203.836 47.1161 203.708 47.0237C203.579 46.9314 203.434 46.8655 203.28 46.83L116.053 26.4672C115.604 26.3619 115.152 26.6417 115.045 27.0896Z" fill="#0F172A"/>
<path d="M109.315 149.204C108.75 149.204 108.222 148.914 107.919 148.42L90.6742 120.285C90.3284 119.721 90.3542 119.009 90.7398 118.472C91.1253 117.934 91.7919 117.682 92.437 117.828L110.702 121.985C113.886 122.71 115.891 125.89 115.172 129.076L110.918 147.924C110.771 148.579 110.247 149.072 109.586 149.182C109.495 149.197 109.404 149.204 109.315 149.204ZM94.5072 121.174L108.814 144.515L112.438 128.458C112.817 126.778 111.759 125.101 110.08 124.719L94.5072 121.174Z" fill="#0F172A"/>
<path opacity="0.25" d="M113.257 132.527L119.564 133.92C123.118 134.705 125.37 138.213 124.605 141.772L123.484 146.98C123.344 147.634 123.749 148.28 124.399 148.437L172.317 159.995C173.439 160.266 174.568 159.581 174.847 158.461L203.021 45.0513L206.512 46.7403L188.558 123.643L178.887 163.404C178.501 163.588 177.924 163.828 177.197 164.005C174.955 164.548 173.059 164.049 171.751 163.684C168.243 162.705 166.488 162.216 164.942 161.521C162.707 160.518 162.116 160.528 145.159 156.716C137.009 154.884 138.53 155.192 134.906 154.393C128.857 153.059 120.127 151.208 109.115 149.129C110.495 143.594 111.876 138.06 113.257 132.527Z" fill="#0F172A"/>
<path opacity="0.25" d="M95.3872 134.893L104.933 152.34L127.536 154.312L109.114 147.688L95.4174 127.639L95.3872 134.893ZM188.436 136.563L182.723 158.957L178.736 158.921L191.453 111.3L188.436 136.563Z" fill="#0F172A"/>
<path d="M245.627 58.1786L248.202 57.3325ZM237.354 59.8279L239.604 59.2981Z" fill="#0F172A"/>
<path d="M247.477 113.196L185.993 74.1398C185.742 73.9809 185.464 73.8714 185.172 73.8172L166.628 70.368C166.071 70.2647 165.659 70.8758 165.965 71.3527L175.881 86.8249C176.051 87.0901 176.278 87.3137 176.545 87.4801L239.204 126.541C240.744 124.578 242.36 122.307 243.944 119.717C245.344 117.425 246.508 115.23 247.477 113.196Z" fill="#004BFD"/>
<path d="M239.437 127.866L176.016 88.3299C175.625 88.0861 175.287 87.7528 175.039 87.3647L165.123 71.8932C164.768 71.3394 164.776 70.6294 165.143 70.0838C165.511 69.5383 166.165 69.2636 166.811 69.3839L185.356 72.8332C185.775 72.9113 186.17 73.0663 186.53 73.2949L248.763 112.827L248.382 113.628C247.307 115.884 246.101 118.108 244.799 120.239C243.332 122.637 241.727 124.948 239.992 127.159L239.437 127.866ZM167.25 71.502L176.724 86.2843C176.813 86.4235 176.934 86.5432 177.074 86.6302L238.966 125.212C240.441 123.282 241.826 121.261 243.089 119.194C244.203 117.373 245.242 115.482 246.187 113.562L185.456 74.984C185.313 74.8935 185.155 74.8313 184.989 74.8006L167.25 71.502Z" fill="#0044E7"/>
<path d="M239.144 126.484C242.432 122.401 245.236 117.952 247.502 113.225C249.558 114.52 251.613 115.816 253.668 117.112C251.474 121.877 248.664 126.335 245.31 130.371C243.255 129.075 241.199 127.779 239.144 126.484Z" fill="#CECECE"/>
<path d="M245.519 131.686L237.659 126.732L238.364 125.856C240.069 123.739 241.66 121.496 243.093 119.188C244.371 117.13 245.551 114.978 246.6 112.792L247.085 111.778L254.945 116.732L254.578 117.53C253.498 119.873 252.272 122.146 250.905 124.335C249.449 126.666 247.837 128.896 246.081 131.01L245.519 131.686ZM240.621 126.231L245.096 129.052C246.58 127.21 247.953 125.281 249.207 123.275C250.373 121.406 251.435 119.473 252.386 117.486L247.911 114.666C246.959 116.572 245.918 118.434 244.794 120.244C243.509 122.312 242.116 124.31 240.621 126.231Z" fill="#0F172A"/>
<path d="M245.418 130.415C246.927 128.487 248.502 126.286 250.055 123.805C251.515 121.474 252.743 119.237 253.777 117.156C256.029 118.575 258.281 119.995 260.533 121.415C261.834 122.235 262.224 123.955 261.403 125.256L256.016 133.803C255.195 135.104 253.476 135.494 252.175 134.674L245.418 130.415Z" fill="#4338CA"/>
<path d="M253.654 136.103C252.941 136.103 252.243 135.902 251.641 135.521L243.948 130.671L244.63 129.798C246.262 127.713 247.802 125.518 249.207 123.274C250.533 121.157 251.769 118.948 252.88 116.71L253.373 115.717L261.067 120.567C262.833 121.68 263.364 124.023 262.251 125.789L256.863 134.336C256.144 135.477 254.912 136.103 253.654 136.103ZM246.883 130.155L252.708 133.826C253.541 134.351 254.644 134.1 255.169 133.269L260.556 124.721C261.08 123.889 260.83 122.785 259.999 122.261L254.174 118.59C253.166 120.548 252.069 122.477 250.904 124.337C249.652 126.336 248.31 128.277 246.883 130.155ZM182.485 76.3179L232.063 109.861L181.822 77.3196L182.485 76.3179ZM245.044 118.666L232.717 110.339L245.676 117.644L245.044 118.666ZM241.458 122.806L204.502 98.5096L242.105 121.793L241.458 122.806ZM179.745 82.0912L200.992 96.246L179.102 83.1061L179.745 82.0912Z" fill="#0F172A"/>
<path opacity="0.5" d="M259.556 126.178C259.679 125.783 259.808 125.137 259.536 124.516C259.299 123.975 258.883 123.735 258.014 123.154C257.513 122.819 256.767 122.308 255.855 121.632C231.739 106.458 207.624 91.2827 183.509 76.1086L184.418 73.6768L190.411 77.4492L241.247 109.238L260.774 121.994L261.592 124.901L259.556 126.178Z" fill="white"/>
<path opacity="0.25" d="M258.848 128.131C258.714 128.424 258.403 128.988 257.774 129.401C257.622 129.502 257.11 129.817 256.252 129.882C255.007 129.977 253.914 129.492 251.526 128.04C250.067 127.152 249.338 126.708 249.068 126.515C247.151 125.146 228.988 113.837 180.231 83.8379C180.231 83.8379 176.503 87.4793 180.909 90.199C185.314 92.9187 229.316 120.375 229.316 120.375L248.811 132.552C249.092 132.936 250.483 134.753 252.602 134.824C255.12 134.908 256.786 132.464 257.454 131.484C258.324 130.208 258.684 128.954 258.848 128.131Z" fill="#0F172A"/>
<path opacity="0.5" d="M250.784 120.331L245.376 117.04L243.984 119.677L249.785 123.12L250.784 120.331ZM248.484 124.545C248.327 124.302 243.017 121.166 243.017 121.166L242.697 122.566L248.274 126.023L248.484 124.545Z" fill="white"/>
<path d="M183.757 73.5541C183.757 73.5541 184.871 77.1564 181.205 76.8301C181.093 76.82 181.016 76.9397 181.072 77.0367C181.677 78.0762 183.766 82.1051 178.911 80.7197C178.754 80.675 178.605 80.8142 178.641 80.9742C178.945 82.3312 179.802 87.0701 177.107 87.8305L176.772 87.6213C176.355 87.3616 176.002 87.0126 175.737 86.5995L166.435 72.0868C166.346 71.9469 166.249 71.8115 166.15 71.6779C165.972 71.4379 165.671 70.9068 166.104 70.4992C166.104 70.4992 166.391 70.2831 168.211 70.663C170.033 71.0423 183.757 73.5541 183.757 73.5541Z" fill="#726CC1"/>
<path d="M176.953 88.9141L176.243 88.4712C175.701 88.132 175.24 87.6772 174.895 87.1394L165.593 72.6267C165.527 72.524 165.449 72.4119 165.347 72.2733C164.7 71.4013 164.729 70.4185 165.42 69.769L165.46 69.7312L165.504 69.6984C165.825 69.4565 166.423 69.2656 168.418 69.6821C170.205 70.055 183.801 72.5435 183.938 72.5687L184.535 72.6777L184.715 73.2573C184.782 73.4759 185.344 75.4333 184.258 76.7778C183.843 77.2906 183.275 77.6213 182.563 77.7662C183.069 78.9613 183.306 80.2635 182.598 81.1739C181.925 82.0395 180.771 82.0849 179.844 81.9532C179.964 82.747 180.055 83.7229 179.999 84.6843C179.834 87.5167 178.484 88.4825 177.38 88.7937L176.953 88.9141ZM167.252 71.5053C167.261 71.5191 167.27 71.533 167.278 71.5469L176.58 86.0595C176.739 86.3084 176.948 86.527 177.19 86.6977C178.344 85.8775 178.054 82.9347 177.663 81.1941C177.57 80.777 177.705 80.336 178.016 80.043C178.326 79.7495 178.775 79.6398 179.186 79.7576C180.545 80.1457 180.961 79.9712 181.017 79.9416C181.109 79.7375 180.967 78.8486 180.207 77.5413C180.101 77.3611 180.048 77.1553 180.052 76.9465C180.056 76.7378 180.117 76.5342 180.229 76.3582C180.341 76.1813 180.5 76.0387 180.688 75.9462C180.875 75.8538 181.085 75.8149 181.293 75.834C181.782 75.8775 182.422 75.8592 182.696 75.5234C182.907 75.2645 182.936 74.8096 182.901 74.4165C180.089 73.9012 169.608 71.9778 168.007 71.6439C167.706 71.5796 167.457 71.5355 167.252 71.5053ZM253.654 136.103C252.941 136.103 252.243 135.902 251.641 135.521L243.948 130.671L244.63 129.798C246.262 127.713 247.802 125.518 249.207 123.274C250.533 121.157 251.769 118.948 252.88 116.71L253.373 115.717L261.067 120.567C262.833 121.68 263.364 124.023 262.251 125.789L256.863 134.336C256.144 135.477 254.912 136.103 253.654 136.103ZM246.883 130.154L252.708 133.826C253.541 134.351 254.644 134.1 255.168 133.269L260.556 124.721C261.08 123.889 260.83 122.785 259.999 122.261L254.174 118.59C253.166 120.548 252.069 122.477 250.904 124.337C249.652 126.336 248.31 128.277 246.883 130.154Z" fill="#0F172A"/>
<path d="M245.519 131.686L237.659 126.732L238.364 125.856C240.069 123.739 241.66 121.496 243.093 119.188C244.371 117.13 245.551 114.978 246.6 112.792L247.085 111.778L254.945 116.732L254.578 117.53C253.498 119.873 252.272 122.146 250.905 124.335C249.449 126.666 247.837 128.896 246.081 131.01L245.519 131.686ZM240.621 126.231L245.096 129.052C246.58 127.21 247.953 125.281 249.207 123.275C250.373 121.406 251.435 119.473 252.386 117.486L247.911 114.666C246.959 116.572 245.918 118.434 244.794 120.244C243.509 122.312 242.116 124.31 240.621 126.231Z" fill="#0F172A"/>
<path d="M239.437 127.866L176.006 88.3242C175.62 88.082 175.291 87.7574 175.044 87.3735L165.123 71.8932C164.768 71.3394 164.775 70.6294 165.143 70.0838C165.51 69.5383 166.165 69.2636 166.811 69.3839L185.333 72.8287C185.765 72.9085 186.178 73.0708 186.548 73.3069L248.762 112.826L248.381 113.627C247.306 115.883 246.1 118.107 244.797 120.239C243.331 122.637 241.726 124.947 239.991 127.159L239.437 127.866ZM167.25 71.502L176.73 86.2931C176.815 86.4267 176.931 86.5413 177.065 86.6251L238.966 125.213C240.441 123.282 241.826 121.262 243.089 119.194C244.203 117.374 245.242 115.483 246.187 113.563L185.475 74.9972C185.32 74.8985 185.148 74.8307 184.967 74.7975L167.25 71.502Z" fill="#0F172A"/>
<path d="M174.102 71.7578C174.102 71.7578 174.548 76.3675 170.072 77.7598L166.73 72.3589C166.752 71.7849 166.772 71.211 166.794 70.6377C169.23 71.0113 171.666 71.3842 174.102 71.7578Z" fill="#0F172A"/>
<path opacity="0.25" d="M178.954 82.9246L169.747 71.3994L167.861 74.6578L176.781 87.627C177.172 87.3428 177.736 86.8539 178.198 86.0935C179.002 84.7699 178.989 83.4564 178.954 82.9246Z" fill="#0F172A"/>
<path opacity="0.25" d="M163.019 71.412C162.516 72.0565 163.16 73.324 163.5 73.9748C165.816 78.4144 169.936 85.5756 170.604 86.7361C170.985 87.3592 171.531 88.1272 172.298 88.9071C172.944 89.5633 173.663 90.1433 174.441 90.6358C199.658 106.62 224.874 122.603 250.091 138.588C251.383 139.407 253.091 139.056 253.956 137.794C254.427 137.106 254.899 136.419 255.37 135.731L176.814 87.5979C173.176 82.1812 169.539 76.7645 165.902 71.3477C165.5 71.2173 163.62 70.6428 163.019 71.412Z" fill="#0F172A"/>
<path d="M137.628 123.155C136.938 122.805 136.289 122.373 135.66 121.915C135.031 121.45 134.432 120.946 133.865 120.407C132.726 119.326 131.713 118.093 130.875 116.73C130.04 115.366 129.387 113.868 128.978 112.293C128.77 111.506 128.627 110.7 128.54 109.887C128.455 109.075 128.423 108.255 128.458 107.438C128.491 106.621 128.579 105.807 128.715 105.003C128.852 104.199 129.044 103.407 129.271 102.629C129.383 102.238 129.512 101.855 129.641 101.471L129.849 100.901C129.883 100.807 129.924 100.712 129.965 100.616L130.086 100.332L130.331 99.7615C130.369 99.6651 130.421 99.5756 130.466 99.4824L130.607 99.2058L130.888 98.652C130.99 98.4719 131.098 98.2948 131.203 98.1165C131.309 97.9389 131.413 97.7587 131.522 97.5829C131.638 97.4116 131.756 97.2408 131.874 97.0701L132.051 96.8143C132.111 96.7293 132.168 96.6423 132.234 96.5629L132.62 96.0747L132.813 95.8309C132.846 95.7906 132.877 95.749 132.911 95.7099L133.015 95.594L133.431 95.1316L133.64 94.9004C133.709 94.8229 133.786 94.7536 133.859 94.6799L134.304 94.2446C135.511 93.1055 136.876 92.1353 138.341 91.3566C139.814 90.5912 141.382 90.0221 143.003 89.6638L143.612 89.5435L143.916 89.4836L144.183 89.4376C144.536 89.3746 144.886 89.3028 145.231 89.2203C145.906 89.0613 146.568 88.8501 147.211 88.5884C147.835 88.3307 148.409 88.0126 148.889 87.6308C149.368 87.2478 149.751 86.8093 150.004 86.3059C150.131 86.0539 150.229 85.7862 150.292 85.5008C150.321 85.3578 150.35 85.2129 150.364 85.0623L150.378 84.9483L150.389 84.8109L150.41 84.5363C150.464 83.8017 150.488 83.0507 150.503 82.2916C150.516 81.5318 150.531 80.7619 150.552 79.9826C150.576 79.2033 150.607 78.4139 150.689 77.6163C150.772 76.8194 150.891 76.0098 151.115 75.2053C151.339 74.4046 151.664 73.5988 152.165 72.8857C152.663 72.1731 153.333 71.5746 154.081 71.1765C154.829 70.7758 155.628 70.5452 156.421 70.4274C157.215 70.3083 158.006 70.2901 158.786 70.3304C159.566 70.3732 160.336 70.4671 161.096 70.6101C160.323 70.6284 159.555 70.6662 158.799 70.755C158.043 70.8388 157.299 70.9786 156.592 71.1903C155.887 71.4077 155.22 71.7019 154.659 72.1101C154.096 72.5152 153.647 73.0268 153.332 73.6184C153.011 74.2074 152.815 74.8721 152.699 75.5663C152.583 76.2612 152.535 76.9851 152.529 77.7215C152.525 78.458 152.549 79.2064 152.586 79.9637C152.623 80.7216 152.675 81.4877 152.707 82.2645C152.741 83.0419 152.768 83.8281 152.76 84.6295C152.76 84.729 152.758 84.8298 152.755 84.93L152.751 85.0806L152.741 85.2532C152.73 85.4863 152.7 85.7219 152.662 85.9563C152.584 86.4262 152.444 86.8956 152.249 87.341C152.054 87.7871 151.802 88.2073 151.511 88.5878C151.222 88.9702 150.888 89.3079 150.539 89.609C149.836 90.2107 149.064 90.6636 148.281 91.0221C147.498 91.3818 146.696 91.6452 145.896 91.8556C145.496 91.9608 145.095 92.0522 144.694 92.1328L144.393 92.1914L144.133 92.2493L143.614 92.3634C142.234 92.6822 140.896 93.178 139.645 93.8369C138.39 94.4896 137.227 95.3137 136.185 96.2687L135.799 96.631C135.735 96.6921 135.667 96.7494 135.607 96.8143L135.426 97.0077L135.062 97.3939L134.971 97.4903C134.941 97.5231 134.914 97.5584 134.886 97.5917L134.717 97.7965L134.379 98.2047C134.32 98.2709 134.271 98.3446 134.219 98.4158L134.063 98.6306C133.96 98.7743 133.855 98.9166 133.749 99.059C133.65 99.2058 133.558 99.3564 133.461 99.5051C133.366 99.6544 133.269 99.8024 133.175 99.953L132.918 100.419L132.788 100.651C132.747 100.729 132.698 100.804 132.664 100.886L132.437 101.368L132.323 101.609C132.284 101.689 132.246 101.769 132.213 101.854L132 102.358C131.868 102.696 131.734 103.034 131.617 103.378C131.378 104.062 131.178 104.759 131.012 105.462C130.846 106.164 130.723 106.875 130.648 107.592C130.575 108.307 130.539 109.028 130.56 109.748C130.58 110.469 130.653 111.188 130.768 111.903C130.883 112.619 131.064 113.325 131.279 114.024C131.494 114.723 131.768 115.407 132.078 116.078C132.702 117.419 133.504 118.694 134.437 119.882C134.905 120.475 135.404 121.05 135.935 121.596C136.469 122.144 137.026 122.671 137.628 123.155Z" fill="#0F172A"/>
</g>
<defs>
<clipPath id="clip0_468_3553">
<rect width="300" height="200" fill="white"/>
</clipPath>
</defs>
</svg>
