<svg width="2000" height="2000" viewBox="0 0 2000 2000" fill="none" xmlns="http://www.w3.org/2000/svg">
<path d="M462.88 982.62H1659.53L1409.87 763.63H712.54L462.88 982.62Z" fill="#080068"/>
<path d="M1409.87 763.63L1599.38 585.91L1915.15 814.47L1659.53 982.62L1409.87 763.63ZM712.54 763.63L450.54 570.88L152.85 772.37L462.85 982.62L712.54 763.63Z" fill="#0069FD"/>
<path d="M1344.61 1056.44L1467.23 1124.36C1471.26 1126.6 1475.71 1127.95 1480.31 1128.34C1484.9 1128.73 1489.52 1128.14 1493.86 1126.61C1498.21 1125.08 1502.18 1122.65 1505.52 1119.48C1508.86 1116.3 1511.49 1112.45 1513.23 1108.19L1710.61 625.45C1713.63 618.063 1713.84 609.823 1711.19 602.293C1708.54 594.764 1703.22 588.468 1696.24 584.6L1680.82 576.06C1673.84 572.195 1665.68 571.025 1657.89 572.772C1650.11 574.52 1643.23 579.062 1638.57 585.54L1334 1008.88C1331.31 1012.61 1329.44 1016.88 1328.51 1021.39C1327.59 1025.89 1327.63 1030.55 1328.63 1035.04C1329.63 1039.53 1331.58 1043.76 1334.33 1047.45C1337.08 1051.14 1340.59 1054.2 1344.61 1056.44Z" fill="#4338CA"/>
<path d="M1511.83 714.653L1627.47 840.549C1632.68 846.215 1641.49 846.589 1647.16 841.385L1665.35 824.675C1671.01 819.471 1671.39 810.659 1666.18 804.993L1550.54 679.097C1545.33 673.431 1536.52 673.057 1530.85 678.261L1512.66 694.971C1507 700.175 1506.62 708.987 1511.83 714.653Z" fill="#94A3B8"/>
<path d="M1446 803.367L1628.09 904.263C1634.82 907.991 1643.3 905.559 1647.03 898.829L1659 877.224C1662.73 870.495 1660.3 862.017 1653.57 858.288L1471.47 757.392C1464.74 753.664 1456.26 756.096 1452.53 762.826L1440.56 784.431C1436.83 791.16 1439.27 799.638 1446 803.367Z" fill="#F1F5F9"/>
<path d="M1402.08 857.454L1627.03 945.383C1634.19 948.184 1642.27 944.646 1645.07 937.48L1654.07 914.475C1656.87 907.31 1653.33 899.231 1646.16 896.43L1421.22 808.501C1414.05 805.7 1405.97 809.238 1403.17 816.404L1394.18 839.409C1391.38 846.574 1394.92 854.653 1402.08 857.454Z" fill="#94A3B8"/>
<path d="M1357.58 892.396L1599.49 1026.44C1606.22 1030.17 1614.7 1027.73 1618.43 1021L1630.4 999.399C1634.13 992.67 1631.7 984.192 1624.97 980.463L1383.05 846.422C1376.32 842.693 1367.84 845.126 1364.11 851.855L1352.14 873.46C1348.42 880.19 1350.85 888.668 1357.58 892.396Z" fill="#F1F5F9"/>
<path d="M1234.99 1023.33L1553.52 1199.83C1559.44 1203.11 1566.89 1200.97 1570.17 1195.05L1594.69 1150.79C1597.97 1144.87 1595.83 1137.42 1589.92 1134.14L1271.38 957.644C1265.47 954.365 1258.01 956.504 1254.73 962.422L1230.21 1006.68C1226.93 1012.6 1229.07 1020.06 1234.99 1023.33Z" fill="#4338CA"/>
<path d="M786.564 851.931C880.49 841.512 949.356 767.484 940.382 686.584C931.408 605.685 847.991 548.549 754.066 558.968C660.141 569.388 591.274 643.416 600.248 724.315C609.223 805.215 692.639 862.35 786.564 851.931Z" fill="#94A3B8"/>
<path d="M804.39 574.75C804.39 574.75 842.78 485.28 913.74 514.58C984.7 543.88 981.74 626.58 910.9 650.58L804.39 574.75ZM708.74 601.33C708.74 601.33 651.68 522.45 588.86 566.58C526.04 610.71 547.07 690.73 621.42 698.58L708.74 601.33Z" fill="#94A3B8"/>
<path d="M814.77 682.73C821.392 682.73 826.76 677.362 826.76 670.74C826.76 664.118 821.392 658.75 814.77 658.75C808.148 658.75 802.78 664.118 802.78 670.74C802.78 677.362 808.148 682.73 814.77 682.73Z" fill="#252246"/>
<path d="M732.17 704.18C738.792 704.18 744.16 698.812 744.16 692.19C744.16 685.568 738.792 680.2 732.17 680.2C725.548 680.2 720.18 685.568 720.18 692.19C720.18 698.812 725.548 704.18 732.17 704.18Z" fill="#252246"/>
<path d="M789.38 703.94C789.38 703.94 759.28 700.85 758.06 711.8C756.84 722.75 766.15 743.89 783.11 740.32C800.07 736.75 814.15 702.34 789.38 703.94Z" fill="#252246"/>
<path d="M804 755.78C792.27 755.78 786.52 740.78 785.24 729.26C785.18 728.73 785.333 728.197 785.666 727.78C785.999 727.363 786.484 727.095 787.015 727.035C787.545 726.975 788.078 727.129 788.495 727.462C788.912 727.795 789.18 728.28 789.24 728.81C789.24 729.01 791.61 748.81 801.64 751.47C806.9 752.85 816.64 749.85 832.88 727.54C833.035 727.328 833.23 727.148 833.454 727.012C833.679 726.875 833.928 726.784 834.187 726.744C834.447 726.703 834.712 726.714 834.967 726.776C835.222 726.838 835.463 726.95 835.675 727.105C835.887 727.26 836.066 727.455 836.203 727.679C836.34 727.904 836.431 728.153 836.471 728.412C836.511 728.672 836.5 728.937 836.438 729.192C836.376 729.447 836.265 729.688 836.11 729.9C823.44 747.26 812.89 755.78 804 755.78Z" fill="#252246"/>
<path d="M761.36 761.15C744.01 761.15 737.53 740.94 737.47 740.73C737.391 740.479 737.362 740.215 737.385 739.953C737.408 739.691 737.483 739.436 737.604 739.203C737.726 738.97 737.893 738.763 738.094 738.595C738.296 738.426 738.529 738.298 738.78 738.22C739.031 738.141 739.296 738.113 739.558 738.136C739.821 738.16 740.076 738.235 740.309 738.358C740.543 738.481 740.749 738.648 740.918 738.851C741.086 739.054 741.212 739.288 741.29 739.54C741.54 740.33 747.58 758.9 763.68 757.01C779.78 755.12 782.56 731.01 782.58 730.78C782.606 730.518 782.684 730.263 782.809 730.031C782.934 729.799 783.103 729.594 783.308 729.428C783.512 729.261 783.748 729.137 784 729.062C784.253 728.987 784.518 728.962 784.78 728.99C785.306 729.045 785.789 729.307 786.122 729.717C786.456 730.128 786.613 730.654 786.56 731.18C786.45 732.31 783.56 758.65 764.16 760.98C763.231 761.095 762.296 761.151 761.36 761.15Z" fill="#252246"/>
<path d="M663 592C638.307 616.124 619.161 645.333 606.89 677.6C581.6 659.11 573.68 628.03 585.05 606.6C598.07 582.26 635.23 571.5 663 592ZM837.34 563.36C868.585 578.031 896.268 599.319 918.47 625.75C936.28 599.98 933.54 568.02 915.78 551.57C895.47 532.78 856.85 534.83 837.34 563.36Z" fill="#F1F5F9"/>
<path d="M1194.16 1231.51L1291.64 1254.65L1459.95 440.04L1409.98 428.18L1194.16 1231.51Z" fill="#0069FD"/>
<path d="M1417.53 460.759L1439.23 465.912C1447.68 467.921 1456.17 462.693 1458.18 454.235L1492.55 309.491C1494.56 301.034 1489.33 292.549 1480.88 290.54L1459.18 285.387C1450.72 283.379 1442.24 288.607 1440.23 297.064L1405.85 441.808C1403.84 450.266 1409.07 458.751 1417.53 460.759Z" fill="#4338CA"/>
<path d="M1402.07 446.536L1459.66 460.213C1461.36 460.618 1463.07 459.565 1463.47 457.862L1465 451.411C1465.41 449.708 1464.36 447.999 1462.65 447.594L1405.06 433.917C1403.36 433.513 1401.65 434.566 1401.25 436.269L1399.72 442.72C1399.31 444.423 1400.36 446.132 1402.07 446.536Z" fill="#4338CA"/>
<path d="M1399.07 459.161L1456.66 472.838C1458.36 473.243 1460.07 472.19 1460.48 470.486L1462.01 464.036C1462.41 462.332 1461.36 460.624 1459.66 460.219L1402.07 446.542C1400.37 446.137 1398.66 447.19 1398.25 448.894L1396.72 455.344C1396.32 457.048 1397.37 458.756 1399.07 459.161Z" fill="#4338CA"/>
<path d="M887.89 1101.81C988.698 1101.81 1070.42 1020.09 1070.42 919.28C1070.42 818.471 988.698 736.75 887.89 736.75C787.081 736.75 705.36 818.471 705.36 919.28C705.36 1020.09 787.081 1101.81 887.89 1101.81Z" fill="#4338CA"/>
<path d="M904.51 833.34C904.141 833.339 903.779 833.236 903.465 833.043C903.151 832.849 902.897 832.572 902.73 832.243C902.563 831.914 902.491 831.545 902.521 831.178C902.551 830.81 902.682 830.458 902.9 830.16C943.48 775.26 995.26 770.24 995.78 770.16C998.38 769.88 998.779 773.92 996.119 774.16C995.619 774.21 945.569 779.16 906.119 832.51C905.935 832.765 905.694 832.973 905.414 833.118C905.134 833.262 904.824 833.338 904.51 833.34ZM1063.75 969.75C1062.56 969.68 944.269 961.26 886.289 883.75C885.971 883.326 885.835 882.792 885.91 882.267C885.985 881.742 886.265 881.268 886.689 880.95C887.114 880.632 887.647 880.495 888.172 880.57C888.697 880.645 889.171 880.926 889.489 881.35C946.349 957.35 1062.83 965.65 1064 965.73C1066.67 965.93 1066.35 970 1063.75 969.75ZM800.849 1072.83C800.438 1072.83 800.037 1072.7 799.701 1072.47C799.365 1072.23 799.109 1071.9 798.969 1071.51C752.529 941.72 818.079 892.76 818.749 892.27C818.962 892.11 819.205 891.994 819.464 891.928C819.722 891.863 819.991 891.851 820.255 891.891C820.518 891.931 820.771 892.024 820.998 892.163C821.225 892.303 821.422 892.486 821.578 892.703C821.733 892.919 821.843 893.165 821.902 893.425C821.962 893.685 821.968 893.954 821.922 894.216C821.875 894.479 821.777 894.729 821.632 894.953C821.488 895.177 821.3 895.37 821.08 895.52C820.44 895.99 757.379 943.39 802.729 1070.16C802.837 1070.46 802.87 1070.78 802.827 1071.1C802.783 1071.42 802.665 1071.72 802.48 1071.98C802.296 1072.24 802.052 1072.46 801.768 1072.6C801.484 1072.75 801.169 1072.83 800.849 1072.83ZM829.45 833.34C828.926 833.34 828.424 833.136 828.049 832.77C827.649 832.39 787.959 794.11 752.369 799.33C752.107 799.368 751.839 799.354 751.582 799.289C751.325 799.223 751.083 799.108 750.87 798.949C750.441 798.629 750.156 798.15 750.08 797.62C750.003 797.089 750.14 796.55 750.46 796.121C750.781 795.691 751.259 795.407 751.789 795.33C789.359 789.89 829.17 828.23 830.84 829.88C831.134 830.155 831.338 830.513 831.425 830.907C831.513 831.301 831.479 831.712 831.329 832.086C831.178 832.46 830.918 832.78 830.583 833.004C830.248 833.227 829.853 833.345 829.45 833.34Z" fill="#F1F5F9"/>
<path d="M875.158 917.001C911.562 906.686 933.67 872.199 924.539 839.971C915.407 807.744 878.493 789.98 842.089 800.295C805.685 810.61 783.577 845.098 792.708 877.325C801.84 909.553 838.754 927.316 875.158 917.001Z" fill="#F1F5F9"/>
<path d="M1077.8 1007.83L1121.65 553.31L1354.42 941.31L1077.8 1007.83Z" fill="#4338CA"/>
<mask id="mask0_420_22" style="mask-type:luminance" maskUnits="userSpaceOnUse" x="1077" y="553" width="278" height="455">
<path d="M1077.8 1007.83L1121.65 553.31L1354.42 941.31L1077.8 1007.83Z" fill="white"/>
</mask>
<g mask="url(#mask0_420_22)">
<path d="M1202.77 587.18L1042.05 742.32L1061.94 768.58L1222.66 618.21L1202.77 587.18ZM1252.79 662L1053.13 838.21L1077.85 868L1277.5 697.21C1269.27 685.463 1261.04 673.727 1252.79 662ZM1282.28 778.92L1057.91 954C1062.42 970.447 1066.93 986.89 1071.43 1003.33L1302.17 815.86L1282.28 778.92Z" fill="#0069FD"/>
</g>
<path d="M1133.44 573C1133.44 573 1125.54 506.06 1097.69 488.56C1069.84 471.06 1045.58 496.12 1045.58 496.12L1042.39 534.7C1042.39 534.7 1060.3 504.07 1085.39 509.64C1110.48 515.21 1133.44 573 1133.44 573Z" fill="#0069FD"/>
<path d="M1133.44 573C1133.44 573 1115.19 518.39 1083.37 522.77C1051.55 527.15 1040.8 569.97 1040.8 569.97L1055.52 594.77C1055.52 594.77 1069.05 554.59 1089.73 550.22C1110.41 545.85 1119.42 576.46 1119.42 576.46L1133.44 573Z" fill="#0069FD"/>
<path d="M1252.42 938.58V870.69C1252.41 867.119 1251.13 863.669 1248.8 860.96C1246.47 858.25 1243.26 856.46 1239.73 855.91L1098.34 834.21C1092.96 833.382 1087.46 834.333 1082.67 836.918C1077.88 839.502 1074.06 843.579 1071.8 848.53L1051.06 893.9L975.97 878.9C970.042 877.731 963.892 878.748 958.656 881.763C953.421 884.778 949.454 889.586 947.49 895.3L926.61 956.42L1307.23 1070.8L1341.73 986.57C1342.51 984.683 1342.89 982.657 1342.86 980.615C1342.83 978.574 1342.38 976.561 1341.55 974.699C1340.71 972.837 1339.5 971.165 1337.99 969.786C1336.49 968.407 1334.72 967.35 1332.79 966.68L1252.42 938.58Z" fill="#94A3B8"/>
<path d="M993.57 1020.19C1015.78 1020.19 1033.78 1002.19 1033.78 979.98C1033.78 957.773 1015.78 939.77 993.57 939.77C971.363 939.77 953.36 957.773 953.36 979.98C953.36 1002.19 971.363 1020.19 993.57 1020.19Z" fill="#080068"/>
<path d="M1152.63 855.77L1140.42 913.56L1063.87 895.09C1072.91 878.21 1081.94 861.33 1090.97 844.45L1152.63 855.77ZM1171.4 858.63C1167.63 878.43 1163.86 898.23 1160.08 918.03L1233.65 932.62C1234.15 911.773 1234.65 890.923 1235.14 870.07L1171.4 858.63Z" fill="#4338CA"/>
<path d="M1127.61 1022.19C1127.31 1022.19 1127.02 1022.12 1126.75 1021.99C1126.48 1021.86 1126.24 1021.67 1126.05 1021.44C1125.87 1021.21 1125.73 1020.94 1125.67 1020.65C1125.6 1020.35 1125.6 1020.05 1125.66 1019.76L1162.3 854.76C1162.35 854.494 1162.45 854.24 1162.59 854.013C1162.74 853.787 1162.93 853.593 1163.16 853.443C1163.38 853.293 1163.64 853.19 1163.9 853.14C1164.17 853.091 1164.44 853.095 1164.7 853.154C1164.97 853.213 1165.22 853.325 1165.44 853.483C1165.66 853.64 1165.84 853.841 1165.98 854.073C1166.12 854.304 1166.21 854.561 1166.25 854.829C1166.29 855.097 1166.27 855.369 1166.2 855.63L1129.57 1020.63C1129.47 1021.07 1129.22 1021.47 1128.86 1021.75C1128.51 1022.04 1128.07 1022.19 1127.61 1022.19ZM1124.48 927.17C1124.08 927.17 1125.48 927.49 1101.2 921.22C1100.94 921.154 1100.71 921.039 1100.5 920.881C1100.29 920.723 1100.11 920.525 1099.97 920.298C1099.84 920.072 1099.75 919.821 1099.72 919.56C1099.68 919.3 1099.69 919.035 1099.76 918.78C1099.83 918.525 1099.94 918.286 1100.1 918.076C1100.26 917.865 1100.45 917.688 1100.68 917.555C1100.91 917.421 1101.16 917.333 1101.42 917.296C1101.68 917.259 1101.94 917.274 1102.2 917.34L1124.98 923.23C1125.45 923.349 1125.87 923.638 1126.14 924.041C1126.42 924.445 1126.54 924.936 1126.48 925.422C1126.42 925.907 1126.18 926.353 1125.81 926.675C1125.44 926.997 1124.97 927.173 1124.48 927.17ZM1185.69 939.68C1185.28 939.68 1186.69 939.98 1163.79 934.57C1163.29 934.432 1162.86 934.107 1162.6 933.661C1162.34 933.216 1162.26 932.685 1162.37 932.182C1162.49 931.678 1162.8 931.24 1163.24 930.96C1163.67 930.68 1164.2 930.579 1164.71 930.68L1186.16 935.74C1186.63 935.858 1187.04 936.145 1187.32 936.545C1187.6 936.946 1187.72 937.434 1187.66 937.917C1187.6 938.4 1187.37 938.846 1187.01 939.17C1186.64 939.495 1186.18 939.676 1185.69 939.68Z" fill="#080068"/>
<path d="M462.88 1714.77L1659.53 1714.77V982.62L462.88 982.62V1714.77Z" fill="#0069FD"/>
<path d="M374.64 1278.31H1747.77L1659.53 982.62H462.88L374.64 1278.31Z" fill="#0069FD"/>
<path d="M1659.53 1275H462.88C462.349 1275 461.841 1274.79 461.466 1274.41C461.091 1274.04 460.88 1273.53 460.88 1273C460.88 1272.47 461.091 1271.96 461.466 1271.59C461.841 1271.21 462.349 1271 462.88 1271H1659.53C1660.06 1271 1660.57 1271.21 1660.94 1271.59C1661.32 1271.96 1661.53 1272.47 1661.53 1273C1661.53 1273.53 1661.32 1274.04 1660.94 1274.41C1660.57 1274.79 1660.06 1275 1659.53 1275Z" fill="#080068"/>
<path d="M669 789.8C669 789.8 628.27 815.39 611.58 884.36C610.3 889.63 588.11 984.55 640.29 1026.65C647.29 1032.28 665.46 1044.94 689.46 1043.65C718.16 1042.11 747.09 1021.06 752.08 996.18C757.14 970.92 733.41 958.79 721.88 921.68C710.88 886.32 718.44 852.68 726.04 830.59L669 789.8Z" fill="#94A3B8"/>
<path d="M724.34 1540.52H550.09V1714.77H724.34V1540.52Z" fill="#080068"/>
<path d="M463.34 1540.52H289.09V1714.77H463.34V1540.52Z" fill="#94A3B8"/>
<path d="M260.01 1540.52H85.7598V1714.77H260.01V1540.52Z" fill="#4338CA"/>
<path d="M320.48 1366.26H146.23V1540.51H320.48V1366.26Z" fill="#080068"/>
<path d="M519.08 1366.26H344.83V1540.51H519.08V1366.26Z" fill="#4338CA"/>
<path d="M476.54 1192.01H302.29V1366.26H476.54V1192.01Z" fill="#94A3B8"/>
<path d="M344.83 1334.53C343.823 1334.53 342.832 1334.28 341.944 1333.8C341.056 1333.33 340.298 1332.65 339.735 1331.81C339.173 1330.98 338.824 1330.02 338.718 1329.02C338.612 1328.02 338.754 1327 339.13 1326.07L383.72 1216.13C384.204 1214.94 385.049 1213.94 386.134 1213.25C387.22 1212.57 388.492 1212.24 389.773 1212.31C391.054 1212.39 392.279 1212.86 393.277 1213.67C394.275 1214.48 394.997 1215.57 395.34 1216.81L425.58 1326.75C425.831 1327.54 425.92 1328.37 425.842 1329.2C425.764 1330.02 425.52 1330.82 425.125 1331.55C424.731 1332.28 424.193 1332.92 423.544 1333.43C422.895 1333.95 422.149 1334.33 421.351 1334.55C420.552 1334.77 419.718 1334.82 418.897 1334.71C418.076 1334.6 417.286 1334.32 416.574 1333.9C415.862 1333.48 415.244 1332.91 414.755 1332.25C414.266 1331.58 413.917 1330.82 413.73 1330.01L388.3 1237.57L350.53 1330.69C350.07 1331.82 349.282 1332.8 348.266 1333.48C347.251 1334.16 346.054 1334.53 344.83 1334.53Z" fill="#F1F5F9"/>
<path d="M406.11 1285.29H364.8C363.169 1285.29 361.605 1284.64 360.451 1283.49C359.298 1282.34 358.65 1280.77 358.65 1279.14C358.65 1277.51 359.298 1275.94 360.451 1274.79C361.605 1273.64 363.169 1272.99 364.8 1272.99H406.11C407.741 1272.99 409.305 1273.64 410.459 1274.79C411.612 1275.94 412.26 1277.51 412.26 1279.14C412.26 1280.77 411.612 1282.34 410.459 1283.49C409.305 1284.64 407.741 1285.29 406.11 1285.29ZM650 1690.21H631C626.108 1690.2 621.419 1688.26 617.96 1684.8C614.501 1681.34 612.555 1676.65 612.55 1671.76V1662.54C612.55 1660.91 613.198 1659.34 614.351 1658.19C615.505 1657.04 617.069 1656.39 618.7 1656.39C620.331 1656.39 621.895 1657.04 623.049 1658.19C624.202 1659.34 624.85 1660.91 624.85 1662.54V1671.76C624.85 1673.39 625.498 1674.96 626.651 1676.11C627.805 1677.26 629.369 1677.91 631 1677.91H650C652.039 1677.91 653.993 1677.1 655.435 1675.65C656.876 1674.21 657.687 1672.26 657.69 1670.22V1640.73C657.672 1638.9 656.934 1637.14 655.636 1635.85C654.339 1634.55 652.584 1633.82 650.75 1633.8H618.75C617.119 1633.8 615.555 1633.15 614.401 1632C613.248 1630.85 612.6 1629.28 612.6 1627.65V1588.73C612.6 1587.92 612.759 1587.12 613.068 1586.38C613.377 1585.63 613.83 1584.95 614.401 1584.38C614.972 1583.81 615.65 1583.36 616.396 1583.05C617.143 1582.74 617.942 1582.58 618.75 1582.58H669C670.631 1582.58 672.195 1583.23 673.349 1584.38C674.502 1585.53 675.15 1587.1 675.15 1588.73C675.15 1590.36 674.502 1591.93 673.349 1593.08C672.195 1594.23 670.631 1594.88 669 1594.88H624.92V1621.5H650.78C655.876 1621.51 660.76 1623.54 664.362 1627.14C667.965 1630.75 669.992 1635.63 670 1640.73V1670.22C669.997 1675.52 667.889 1680.61 664.139 1684.36C660.388 1688.1 655.303 1690.21 650 1690.21ZM395.82 1509C395.012 1509 394.213 1508.84 393.466 1508.53C392.72 1508.22 392.042 1507.77 391.471 1507.2C390.9 1506.63 390.447 1505.95 390.138 1505.2C389.829 1504.46 389.67 1503.66 389.67 1502.85V1418.15L385.88 1420.93C385.231 1421.43 384.488 1421.8 383.696 1422.01C382.903 1422.22 382.077 1422.26 381.265 1422.15C380.453 1422.04 379.672 1421.76 378.969 1421.34C378.265 1420.92 377.652 1420.36 377.167 1419.7C376.682 1419.04 376.333 1418.29 376.143 1417.49C375.952 1416.7 375.922 1415.87 376.056 1415.06C376.189 1414.25 376.483 1413.48 376.92 1412.78C377.357 1412.09 377.928 1411.49 378.6 1411.02L392.18 1401.02C393.1 1400.35 394.189 1399.94 395.326 1399.85C396.463 1399.76 397.603 1399.98 398.62 1400.5C399.636 1401.02 400.488 1401.81 401.081 1402.79C401.674 1403.76 401.986 1404.88 401.98 1406.02V1502.88C401.972 1504.51 401.319 1506.07 400.164 1507.21C399.01 1508.36 397.448 1509 395.82 1509Z" fill="#F1F5F9"/>
<path d="M408.38 1507.89H382.24C381.432 1507.89 380.632 1507.73 379.886 1507.42C379.14 1507.11 378.462 1506.66 377.891 1506.09C377.32 1505.52 376.867 1504.84 376.558 1504.09C376.249 1503.35 376.09 1502.55 376.09 1501.74C376.09 1500.93 376.249 1500.13 376.558 1499.39C376.867 1498.64 377.32 1497.96 377.891 1497.39C378.462 1496.82 379.14 1496.37 379.886 1496.06C380.632 1495.75 381.432 1495.59 382.24 1495.59H408.38C410.011 1495.59 411.575 1496.24 412.728 1497.39C413.882 1498.54 414.53 1500.11 414.53 1501.74C414.53 1503.37 413.882 1504.94 412.728 1506.09C411.575 1507.24 410.011 1507.89 408.38 1507.89ZM465 1509H445C438.986 1508.99 433.22 1506.6 428.968 1502.35C424.716 1498.1 422.325 1492.33 422.32 1486.32V1417.9C422.338 1411.89 424.735 1406.14 428.985 1401.9C433.236 1397.65 438.994 1395.27 445 1395.26H465C471.012 1395.27 476.776 1397.66 481.028 1401.91C485.28 1406.16 487.672 1411.93 487.68 1417.94V1486.36C487.664 1492.37 485.268 1498.12 481.017 1502.37C476.766 1506.61 471.006 1508.99 465 1509ZM445 1407.52C442.247 1407.52 439.609 1408.62 437.663 1410.56C435.717 1412.51 434.622 1415.15 434.62 1417.9V1486.32C434.614 1487.69 434.879 1489.04 435.398 1490.3C435.917 1491.57 436.681 1492.72 437.646 1493.69C438.61 1494.65 439.756 1495.42 441.018 1495.95C442.28 1496.47 443.633 1496.74 445 1496.74H465C466.363 1496.74 467.712 1496.47 468.972 1495.95C470.231 1495.43 471.375 1494.66 472.339 1493.7C473.303 1492.74 474.068 1491.59 474.589 1490.33C475.111 1489.07 475.38 1487.72 475.38 1486.36V1417.94C475.377 1415.19 474.282 1412.55 472.336 1410.6C470.39 1408.66 467.752 1407.56 465 1407.56L445 1407.52ZM182.11 1696.62H167.5C159.958 1696.61 152.729 1693.61 147.398 1688.27C142.066 1682.94 139.068 1675.71 139.06 1668.17V1605.9C139.068 1598.36 142.066 1591.13 147.398 1585.8C152.73 1580.47 159.959 1577.47 167.5 1577.46H182.11C189.65 1577.47 196.879 1580.47 202.211 1585.8C207.543 1591.13 210.542 1598.36 210.55 1605.9C210.55 1607.53 209.902 1609.1 208.748 1610.25C207.595 1611.4 206.031 1612.05 204.4 1612.05C202.768 1612.05 201.204 1611.4 200.051 1610.25C198.898 1609.1 198.25 1607.53 198.25 1605.9C198.244 1601.62 196.542 1597.52 193.516 1594.49C190.491 1591.47 186.389 1589.77 182.11 1589.76H167.5C163.221 1589.77 159.118 1591.47 156.093 1594.49C153.067 1597.52 151.365 1601.62 151.36 1605.9V1668.17C151.362 1672.45 153.063 1676.56 156.089 1679.58C159.115 1682.61 163.219 1684.31 167.5 1684.32H182.11C186.39 1684.31 190.494 1682.61 193.52 1679.58C196.546 1676.56 198.247 1672.45 198.25 1668.17V1655.87C198.25 1654.24 198.898 1652.67 200.051 1651.52C201.204 1650.37 202.768 1649.72 204.4 1649.72C206.031 1649.72 207.595 1650.37 208.748 1651.52C209.902 1652.67 210.55 1654.24 210.55 1655.87V1668.17C210.542 1675.71 207.543 1682.94 202.212 1688.27C196.88 1693.61 189.651 1696.61 182.11 1696.62ZM248.35 1514.51H216.06C211.066 1514.5 206.28 1512.51 202.75 1508.98C199.22 1505.45 197.235 1500.66 197.23 1495.67V1490.29C197.23 1488.66 197.878 1487.09 199.031 1485.94C200.184 1484.79 201.748 1484.14 203.38 1484.14C205.011 1484.14 206.575 1484.79 207.728 1485.94C208.882 1487.09 209.53 1488.66 209.53 1490.29V1495.67C209.532 1497.4 210.221 1499.06 211.444 1500.29C212.668 1501.51 214.328 1502.2 216.06 1502.21H248.35C249.676 1502.21 250.947 1501.68 251.885 1500.75C252.823 1499.81 253.35 1498.54 253.35 1497.21V1454.54C253.347 1452.5 252.536 1450.55 251.094 1449.11C249.653 1447.66 247.698 1446.85 245.66 1446.85H210.3C209.017 1446.86 207.764 1446.46 206.716 1445.72C205.668 1444.98 204.877 1443.93 204.454 1442.72C204.031 1441.51 203.997 1440.2 204.357 1438.96C204.716 1437.73 205.451 1436.64 206.46 1435.85L245.76 1404.53H203.38C201.748 1404.53 200.184 1403.88 199.031 1402.73C197.878 1401.58 197.23 1400.01 197.23 1398.38C197.23 1396.75 197.878 1395.18 199.031 1394.03C200.184 1392.88 201.748 1392.23 203.38 1392.23H263.38C264.663 1392.22 265.916 1392.62 266.964 1393.36C268.011 1394.1 268.802 1395.15 269.225 1396.36C269.648 1397.57 269.682 1398.88 269.322 1400.12C268.963 1401.35 268.228 1402.44 267.22 1403.23L227.92 1434.55H245.7C251.004 1434.55 256.091 1436.66 259.842 1440.41C263.592 1444.16 265.7 1449.25 265.7 1454.55V1497.22C265.696 1499.49 265.244 1501.75 264.37 1503.85C263.496 1505.95 262.217 1507.85 260.605 1509.46C258.994 1511.06 257.083 1512.34 254.98 1513.2C252.877 1514.07 250.624 1514.51 248.35 1514.51ZM348.16 1692.26C346.528 1692.26 344.964 1691.61 343.811 1690.46C342.658 1689.31 342.01 1687.74 342.01 1686.11V1583.61C342.01 1581.98 342.658 1580.41 343.811 1579.26C344.964 1578.11 346.528 1577.46 348.16 1577.46C349.791 1577.46 351.355 1578.11 352.508 1579.26C353.662 1580.41 354.31 1581.98 354.31 1583.61V1686.11C354.31 1687.74 353.662 1689.31 352.508 1690.46C351.355 1691.61 349.791 1692.26 348.16 1692.26Z" fill="#F1F5F9"/>
<path d="M394.35 1630.76H347.78C346.149 1630.76 344.585 1630.11 343.431 1628.96C342.278 1627.81 341.63 1626.24 341.63 1624.61V1583.61C341.63 1581.98 342.278 1580.41 343.431 1579.26C344.585 1578.11 346.149 1577.46 347.78 1577.46H393.33C395.63 1577.46 397.907 1577.92 400.031 1578.8C402.156 1579.68 404.085 1580.98 405.709 1582.61C407.333 1584.24 408.621 1586.17 409.498 1588.29C410.374 1590.42 410.824 1592.7 410.82 1595V1614.35C410.801 1618.71 409.058 1622.88 405.972 1625.95C402.885 1629.03 398.707 1630.76 394.35 1630.76ZM353.93 1618.46H394.35C395.454 1618.46 396.513 1618.02 397.295 1617.24C398.077 1616.46 398.517 1615.4 398.52 1614.3V1595C398.517 1593.62 397.97 1592.31 396.997 1591.33C396.024 1590.36 394.706 1589.81 393.33 1589.81H353.93V1618.46Z" fill="#F1F5F9"/>
<path d="M395.06 1696.62H347.78C346.972 1696.62 346.173 1696.46 345.426 1696.15C344.68 1695.84 344.002 1695.39 343.431 1694.82C342.86 1694.25 342.407 1693.57 342.098 1692.82C341.789 1692.08 341.63 1691.28 341.63 1690.47V1630C341.63 1629.19 341.789 1628.39 342.098 1627.65C342.407 1626.9 342.86 1626.22 343.431 1625.65C344.002 1625.08 344.68 1624.63 345.426 1624.32C346.173 1624.01 346.972 1623.85 347.78 1623.85H391.53C396.643 1623.86 401.544 1625.89 405.161 1629.5C408.777 1633.12 410.812 1638.02 410.82 1643.13V1680.87C410.812 1685.05 409.149 1689.05 406.195 1692C403.24 1694.95 399.236 1696.61 395.06 1696.62ZM353.93 1684.32H395.06C395.978 1684.32 396.858 1683.96 397.506 1683.31C398.155 1682.66 398.52 1681.78 398.52 1680.86V1643.12C398.52 1641.26 397.782 1639.48 396.47 1638.17C395.157 1636.86 393.376 1636.12 391.52 1636.12H353.92L353.93 1684.32Z" fill="#F1F5F9"/>
</svg>
